<?xml version="1.0" encoding="utf-8"?>
<!-- Generator: Adobe Illustrator 25.2.1, SVG Export Plug-In . SVG Version: 6.00 Build 0)  -->
<svg version="1.1" id="Layer_1" xmlns="http://www.w3.org/2000/svg" xmlns:xlink="http://www.w3.org/1999/xlink" x="0px" y="0px"
	 viewBox="0 0 152 165" style="enable-background:new 0 0 152 165;" xml:space="preserve">
<style type="text/css">
	.st0{display:none;fill:#FFFFFF;}
	.st1{fill:#F7F7F9;}
	.st2{font-family:'DahliaRegular';}
	.st3{font-size:86px;}
</style>
<path class="st0" d="M76,0.7L1,41.6v82.7l75,40l75-40V42L76,0.7z M69.2,145.2L23.7,121l28.6-19.1c7.4-4.9-0.5-16.1-8.5-10.7
	l-29.3,19.5V56.8l54.5,29.7V145.2z M22.4,45.5l46.8-25.5v30.2c0,9,13.6,9,13.6,0V20l47.1,26L76,74.8L22.4,45.5z M82.8,86.6
	l54.5-29.1v53.2l-29.1-19.4c-8.1-5.4-15.8,5.8-8.5,10.7l28.4,19l-45.4,24.2L82.8,86.6L82.8,86.6z"/>
<text transform="matrix(1 0 0 1 6.7605 99.312)" class="st1 st2 st3">BM</text>
<g>
	<g>
		<path class="st1" d="M47.5,111.6h0.6v12.6h-0.6V111.6z M47.9,117.4h7.2v0.6h-7.2V117.4z M54.9,111.6h0.6v12.6h-0.6V111.6z"/>
		<path class="st1" d="M60.3,123.8c-0.8-0.4-1.4-1-1.8-1.8c-0.4-0.7-0.6-1.6-0.6-2.5c0-0.9,0.2-1.8,0.6-2.5c0.4-0.8,1-1.3,1.8-1.8
			s1.6-0.6,2.6-0.6c0.9,0,1.8,0.2,2.6,0.6c0.8,0.4,1.4,1,1.8,1.8s0.6,1.6,0.6,2.5c0,0.9-0.2,1.7-0.6,2.5s-1,1.3-1.8,1.8
			c-0.8,0.4-1.6,0.6-2.6,0.6C61.9,124.4,61.1,124.2,60.3,123.8z M65.1,123.3c0.7-0.4,1.2-0.9,1.6-1.6c0.4-0.7,0.6-1.4,0.6-2.2
			c0-0.8-0.2-1.6-0.6-2.2c-0.4-0.7-0.9-1.2-1.6-1.6c-0.7-0.4-1.4-0.6-2.3-0.6s-1.6,0.2-2.3,0.6c-0.7,0.4-1.2,0.9-1.6,1.6
			c-0.4,0.7-0.6,1.4-0.6,2.2c0,0.8,0.2,1.6,0.6,2.2s0.9,1.2,1.6,1.6c0.7,0.4,1.4,0.6,2.3,0.6S64.5,123.7,65.1,123.3z"/>
		<path class="st1" d="M70.1,111.1h0.6v13.1h-0.6V111.1z"/>
		<path class="st1" d="M73.5,112.5c-0.1-0.1-0.1-0.2-0.1-0.4c0-0.1,0-0.2,0.1-0.3c0.1-0.1,0.2-0.1,0.4-0.1c0.2,0,0.3,0,0.4,0.1
			c0.1,0.1,0.1,0.2,0.1,0.3c0,0.1,0,0.3-0.1,0.4c-0.1,0.1-0.2,0.1-0.4,0.1C73.7,112.7,73.5,112.6,73.5,112.5z M73.5,114.8h0.6v9.4
			h-0.6V114.8z"/>
		<path class="st1" d="M78.6,123.7c-0.7-0.4-1.3-1-1.7-1.8c-0.4-0.7-0.6-1.6-0.6-2.5s0.2-1.8,0.6-2.5c0.4-0.7,1-1.3,1.7-1.8
			s1.6-0.6,2.5-0.6s1.7,0.2,2.5,0.6c0.7,0.4,1.3,1,1.8,1.8s0.6,1.6,0.6,2.5s-0.2,1.8-0.6,2.5s-1,1.3-1.8,1.8
			c-0.7,0.4-1.6,0.6-2.5,0.6S79.3,124.2,78.6,123.7z M83.4,123.3c0.7-0.4,1.2-0.9,1.6-1.6c0.4-0.7,0.6-1.4,0.6-2.2
			c0-0.8-0.2-1.6-0.6-2.2c-0.4-0.7-0.9-1.2-1.6-1.6s-1.4-0.6-2.2-0.6s-1.6,0.2-2.2,0.6s-1.2,0.9-1.6,1.5c-0.4,0.7-0.6,1.4-0.6,2.2
			c0,0.8,0.2,1.6,0.6,2.2c0.4,0.7,0.9,1.2,1.5,1.6c0.7,0.4,1.4,0.6,2.2,0.6C82,123.8,82.7,123.7,83.4,123.3z M85.5,124.2v-3.3l0-0.8
			v-1.2l-0.1-0.8v-7h0.6v13.1H85.5z"/>
		<path class="st1" d="M90,124c-0.5-0.3-1-0.7-1.2-1.1c-0.3-0.5-0.4-1-0.4-1.6c0-0.6,0.1-1.1,0.4-1.6c0.3-0.5,0.7-0.9,1.3-1.1
			c0.5-0.3,1.1-0.4,1.8-0.4c0.7,0,1.3,0.1,1.8,0.4c0.5,0.3,0.9,0.6,1.2,1.1c0.3,0.5,0.4,1,0.4,1.6c0,0.6-0.2,1.1-0.5,1.6
			c-0.3,0.5-0.7,0.9-1.2,1.1c-0.5,0.3-1.1,0.4-1.8,0.4C91.2,124.4,90.6,124.3,90,124z M94.9,122.3l0.1-1.1l-0.1-0.8v-2.4
			c0-0.9-0.3-1.6-0.8-2.1c-0.5-0.5-1.2-0.8-2.1-0.8c-0.5,0-1.1,0.1-1.6,0.3c-0.5,0.2-1,0.5-1.5,0.8l-0.3-0.5c0.5-0.4,1-0.7,1.6-0.9
			c0.6-0.2,1.1-0.3,1.7-0.3c1.1,0,1.9,0.3,2.6,0.9c0.6,0.6,1,1.4,1,2.4v6.2H95L94.9,122.3z M93.5,123.5c0.5-0.2,0.8-0.5,1.1-0.9
			c0.3-0.4,0.4-0.9,0.4-1.4c0-0.5-0.1-1-0.4-1.4c-0.3-0.4-0.6-0.7-1.1-0.9c-0.5-0.2-1-0.3-1.6-0.3c-0.6,0-1.1,0.1-1.6,0.3
			c-0.5,0.2-0.8,0.5-1.1,0.9c-0.3,0.4-0.4,0.9-0.4,1.4c0,0.5,0.1,1,0.4,1.4c0.3,0.4,0.6,0.7,1.1,0.9c0.5,0.2,1,0.3,1.6,0.3
			C92.5,123.9,93,123.8,93.5,123.5z"/>
		<path class="st1" d="M100.9,123.4v0.4l-3.8-9.1h0.6l2.2,5.2l1.3,3.2l-0.2,0l1.3-3.1l2.2-5.3h0.6l-5.3,12.9h-0.6L100.9,123.4z"/>
		<path class="st1" d="M107.2,123.8c-0.6-0.4-1-1-1.3-1.8l0.5-0.2c0.2,0.7,0.6,1.2,1.1,1.5c0.5,0.4,1.1,0.5,1.8,0.5
			c0.8,0,1.4-0.2,1.8-0.5c0.5-0.4,0.7-0.8,0.7-1.4c0-0.4-0.1-0.8-0.4-1.1c-0.2-0.3-0.5-0.5-0.8-0.6c-0.3-0.2-0.8-0.3-1.5-0.6
			c-0.7-0.2-1.2-0.4-1.6-0.7s-0.7-0.5-0.9-0.8c-0.2-0.3-0.3-0.7-0.3-1.2c0-0.5,0.1-0.9,0.4-1.2s0.6-0.6,1-0.8
			c0.4-0.2,0.9-0.3,1.5-0.3c0.7,0,1.3,0.2,1.9,0.5c0.6,0.4,1,0.9,1.2,1.5l-0.5,0.2c-0.2-0.5-0.5-1-1-1.3c-0.5-0.3-1-0.5-1.6-0.5
			c-0.7,0-1.3,0.2-1.7,0.5c-0.4,0.3-0.7,0.8-0.7,1.3c0,0.4,0.1,0.7,0.3,1c0.2,0.3,0.5,0.5,0.8,0.6s0.8,0.4,1.4,0.6
			c0.7,0.2,1.2,0.5,1.6,0.6c0.4,0.2,0.7,0.5,1,0.8c0.3,0.3,0.4,0.8,0.4,1.3c0,0.5-0.1,0.9-0.4,1.3s-0.6,0.7-1.1,0.9s-1,0.3-1.6,0.3
			C108.5,124.4,107.8,124.2,107.2,123.8z"/>
	</g>
</g>
</svg>
